<mxfile host="app.diagrams.net" agent="Mozilla/5.0 (Windows NT 10.0; Win64; x64) AppleWebKit/537.36 (KHTML, like Gecko) Chrome/128.0.0.0 Safari/537.36" version="24.7.8">
  <diagram id="BasicFlow" name="Page-1">
    <mxGraphModel dx="1805" dy="420" grid="1" gridSize="10" guides="1" tooltips="1" connect="1" arrows="1" fold="1" page="1" pageScale="1" pageWidth="827" pageHeight="1169" math="0" shadow="0">
      <root>
        <mxCell id="0" />
        <mxCell id="1" parent="0" />
        <mxCell id="F_Y_0ZEHJML5aiYPCJpK-7" value="" style="image;html=1;image=img/lib/clip_art/networking/Print_Server_128x128.png" parent="1" vertex="1">
          <mxGeometry x="190" y="110" width="80" height="130" as="geometry" />
        </mxCell>
        <mxCell id="F_Y_0ZEHJML5aiYPCJpK-91" value="" style="group" parent="1" vertex="1" connectable="0">
          <mxGeometry x="370" y="30" width="140" height="110" as="geometry" />
        </mxCell>
        <mxCell id="F_Y_0ZEHJML5aiYPCJpK-65" value="" style="group;fillColor=#0050ef;fontColor=#ffffff;strokeColor=#001DBC;" parent="F_Y_0ZEHJML5aiYPCJpK-91" vertex="1" connectable="0">
          <mxGeometry x="20" y="50" width="90" height="60" as="geometry" />
        </mxCell>
        <mxCell id="F_Y_0ZEHJML5aiYPCJpK-66" value="" style="swimlane;startSize=0;swimlaneLine=0;rounded=1;fillColor=#0050ef;strokeColor=#001DBC;fontColor=#ffffff;" parent="F_Y_0ZEHJML5aiYPCJpK-65" vertex="1">
          <mxGeometry width="90" height="60" as="geometry">
            <mxRectangle x="-50" y="90" width="50" height="40" as="alternateBounds" />
          </mxGeometry>
        </mxCell>
        <mxCell id="F_Y_0ZEHJML5aiYPCJpK-67" value="" style="group" parent="F_Y_0ZEHJML5aiYPCJpK-66" vertex="1" connectable="0">
          <mxGeometry x="35" y="20" width="50" height="30" as="geometry" />
        </mxCell>
        <mxCell id="F_Y_0ZEHJML5aiYPCJpK-68" value="" style="html=1;verticalLabelPosition=bottom;align=center;labelBackgroundColor=#ffffff;verticalAlign=top;strokeWidth=2;strokeColor=#0080F0;shadow=0;dashed=0;shape=mxgraph.ios7.icons.smartphone;" parent="F_Y_0ZEHJML5aiYPCJpK-67" vertex="1">
          <mxGeometry width="18" height="30" as="geometry" />
        </mxCell>
        <mxCell id="F_Y_0ZEHJML5aiYPCJpK-69" value="" style="html=1;verticalLabelPosition=bottom;align=center;labelBackgroundColor=#ffffff;verticalAlign=top;strokeWidth=2;strokeColor=#0080F0;shadow=0;dashed=0;shape=mxgraph.ios7.icons.smartphone;" parent="F_Y_0ZEHJML5aiYPCJpK-67" vertex="1">
          <mxGeometry x="32" width="18" height="30" as="geometry" />
        </mxCell>
        <mxCell id="F_Y_0ZEHJML5aiYPCJpK-87" value="" style="group" parent="F_Y_0ZEHJML5aiYPCJpK-91" vertex="1" connectable="0">
          <mxGeometry width="140" height="40" as="geometry" />
        </mxCell>
        <mxCell id="F_Y_0ZEHJML5aiYPCJpK-26" value="" style="group" parent="F_Y_0ZEHJML5aiYPCJpK-87" vertex="1" connectable="0">
          <mxGeometry x="60" y="10" width="50" height="20" as="geometry" />
        </mxCell>
        <mxCell id="F_Y_0ZEHJML5aiYPCJpK-20" value="" style="html=1;verticalLabelPosition=bottom;align=center;labelBackgroundColor=#ffffff;verticalAlign=top;strokeWidth=2;strokeColor=#001DBC;shadow=0;dashed=0;shape=mxgraph.ios7.icons.data;fillColor=#0050ef;fontColor=#ffffff;" parent="F_Y_0ZEHJML5aiYPCJpK-26" vertex="1">
          <mxGeometry x="30" width="20" height="20" as="geometry" />
        </mxCell>
        <mxCell id="F_Y_0ZEHJML5aiYPCJpK-21" value="" style="html=1;verticalLabelPosition=bottom;align=center;labelBackgroundColor=#ffffff;verticalAlign=top;strokeWidth=2;strokeColor=#001DBC;shadow=0;dashed=0;shape=mxgraph.ios7.icons.data;fillColor=#0050ef;fontColor=#ffffff;" parent="F_Y_0ZEHJML5aiYPCJpK-26" vertex="1">
          <mxGeometry width="20" height="20" as="geometry" />
        </mxCell>
        <mxCell id="F_Y_0ZEHJML5aiYPCJpK-93" value="" style="group" parent="1" vertex="1" connectable="0">
          <mxGeometry x="-40" y="220" width="198" height="128" as="geometry" />
        </mxCell>
        <mxCell id="F_Y_0ZEHJML5aiYPCJpK-60" value="" style="group;fillColor=#60a917;fontColor=#ffffff;strokeColor=#2D7600;" parent="F_Y_0ZEHJML5aiYPCJpK-93" vertex="1" connectable="0">
          <mxGeometry width="90" height="60" as="geometry" />
        </mxCell>
        <mxCell id="F_Y_0ZEHJML5aiYPCJpK-61" value="" style="swimlane;startSize=0;swimlaneLine=0;rounded=1;fillColor=#60a917;fontColor=#ffffff;strokeColor=#2D7600;" parent="F_Y_0ZEHJML5aiYPCJpK-60" vertex="1">
          <mxGeometry width="90" height="60" as="geometry">
            <mxRectangle x="-50" y="90" width="50" height="40" as="alternateBounds" />
          </mxGeometry>
        </mxCell>
        <mxCell id="F_Y_0ZEHJML5aiYPCJpK-77" value="" style="html=1;verticalLabelPosition=bottom;align=center;labelBackgroundColor=default;verticalAlign=top;strokeWidth=2;strokeColor=#0080F0;shadow=0;dashed=0;shape=image;aspect=fixed;perimeter=ellipsePerimeter;spacingTop=3;image=img/lib/active_directory/laptop_client.svg;" parent="F_Y_0ZEHJML5aiYPCJpK-61" vertex="1">
          <mxGeometry x="12" y="10" width="24" height="40" as="geometry" />
        </mxCell>
        <mxCell id="F_Y_0ZEHJML5aiYPCJpK-79" value="" style="verticalLabelPosition=bottom;html=1;verticalAlign=top;align=center;strokeColor=none;fillColor=#00BEF2;shape=mxgraph.azure.laptop;pointerEvents=1;" parent="F_Y_0ZEHJML5aiYPCJpK-61" vertex="1">
          <mxGeometry x="50" y="15" width="30" height="30" as="geometry" />
        </mxCell>
        <mxCell id="F_Y_0ZEHJML5aiYPCJpK-89" value="" style="group" parent="F_Y_0ZEHJML5aiYPCJpK-93" vertex="1" connectable="0">
          <mxGeometry y="70" width="108" height="38" as="geometry" />
        </mxCell>
        <mxCell id="F_Y_0ZEHJML5aiYPCJpK-27" value="" style="group" parent="F_Y_0ZEHJML5aiYPCJpK-89" vertex="1" connectable="0">
          <mxGeometry y="10" width="50" height="20" as="geometry" />
        </mxCell>
        <mxCell id="F_Y_0ZEHJML5aiYPCJpK-16" value="" style="html=1;verticalLabelPosition=bottom;align=center;labelBackgroundColor=#ffffff;verticalAlign=top;strokeWidth=2;strokeColor=#005700;shadow=0;dashed=0;shape=mxgraph.ios7.icons.data;fillColor=#008a00;fontColor=#ffffff;" parent="F_Y_0ZEHJML5aiYPCJpK-27" vertex="1">
          <mxGeometry x="30" width="20" height="20" as="geometry" />
        </mxCell>
        <mxCell id="F_Y_0ZEHJML5aiYPCJpK-19" value="" style="html=1;verticalLabelPosition=bottom;align=center;labelBackgroundColor=#ffffff;verticalAlign=top;strokeWidth=2;strokeColor=#005700;shadow=0;dashed=0;shape=mxgraph.ios7.icons.data;fillColor=#008a00;fontColor=#ffffff;" parent="F_Y_0ZEHJML5aiYPCJpK-27" vertex="1">
          <mxGeometry width="20" height="20" as="geometry" />
        </mxCell>
        <mxCell id="F_Y_0ZEHJML5aiYPCJpK-10" value="" style="sketch=0;outlineConnect=0;fontColor=#ffffff;fillColor=#60a917;strokeColor=#2D7600;dashed=0;verticalLabelPosition=bottom;verticalAlign=top;align=center;html=1;fontSize=12;fontStyle=0;aspect=fixed;pointerEvents=1;shape=mxgraph.aws4.sagemaker_model;" parent="F_Y_0ZEHJML5aiYPCJpK-93" vertex="1">
          <mxGeometry x="120" y="60" width="38" height="38" as="geometry" />
        </mxCell>
        <mxCell id="F_Y_0ZEHJML5aiYPCJpK-110" style="edgeStyle=orthogonalEdgeStyle;rounded=0;orthogonalLoop=1;jettySize=auto;html=1;" parent="F_Y_0ZEHJML5aiYPCJpK-93" source="F_Y_0ZEHJML5aiYPCJpK-16" target="F_Y_0ZEHJML5aiYPCJpK-10" edge="1">
          <mxGeometry relative="1" as="geometry" />
        </mxCell>
        <mxCell id="F_Y_0ZEHJML5aiYPCJpK-114" value="cluster model" style="text;html=1;align=center;verticalAlign=middle;resizable=0;points=[];autosize=1;strokeColor=none;fillColor=none;fontFamily=Times New Roman;" parent="F_Y_0ZEHJML5aiYPCJpK-93" vertex="1">
          <mxGeometry x="94" y="98" width="90" height="30" as="geometry" />
        </mxCell>
        <mxCell id="F_Y_0ZEHJML5aiYPCJpK-94" value="" style="group" parent="1" vertex="1" connectable="0">
          <mxGeometry x="359" y="220" width="110" height="108" as="geometry" />
        </mxCell>
        <mxCell id="F_Y_0ZEHJML5aiYPCJpK-59" value="" style="group;fillColor=#e3c800;fontColor=#000000;strokeColor=#B09500;" parent="F_Y_0ZEHJML5aiYPCJpK-94" vertex="1" connectable="0">
          <mxGeometry x="20" width="90" height="60" as="geometry" />
        </mxCell>
        <mxCell id="F_Y_0ZEHJML5aiYPCJpK-56" value="" style="swimlane;startSize=0;swimlaneLine=0;rounded=1;" parent="F_Y_0ZEHJML5aiYPCJpK-59" vertex="1">
          <mxGeometry x="9" width="90" height="60" as="geometry">
            <mxRectangle x="-50" y="90" width="50" height="40" as="alternateBounds" />
          </mxGeometry>
        </mxCell>
        <mxCell id="F_Y_0ZEHJML5aiYPCJpK-86" value="" style="group" parent="F_Y_0ZEHJML5aiYPCJpK-56" vertex="1" connectable="0">
          <mxGeometry x="13" y="17.4" width="66" height="30" as="geometry" />
        </mxCell>
        <mxCell id="F_Y_0ZEHJML5aiYPCJpK-81" value="" style="points=[[0.13,0.02,0],[0.5,0,0],[0.87,0.02,0],[0.885,0.4,0],[0.985,0.985,0],[0.5,1,0],[0.015,0.985,0],[0.115,0.4,0]];verticalLabelPosition=bottom;sketch=0;html=1;verticalAlign=top;aspect=fixed;align=center;pointerEvents=1;shape=mxgraph.cisco19.laptop;fillColor=#005073;strokeColor=none;" parent="F_Y_0ZEHJML5aiYPCJpK-86" vertex="1">
          <mxGeometry x="30" width="36" height="25.2" as="geometry" />
        </mxCell>
        <mxCell id="F_Y_0ZEHJML5aiYPCJpK-85" value="" style="sketch=0;aspect=fixed;pointerEvents=1;shadow=0;dashed=0;html=1;strokeColor=none;labelPosition=center;verticalLabelPosition=bottom;verticalAlign=top;align=center;fillColor=#00188D;shape=mxgraph.azure.mobile" parent="F_Y_0ZEHJML5aiYPCJpK-86" vertex="1">
          <mxGeometry width="21" height="30" as="geometry" />
        </mxCell>
        <mxCell id="F_Y_0ZEHJML5aiYPCJpK-90" value="" style="group" parent="F_Y_0ZEHJML5aiYPCJpK-94" vertex="1" connectable="0">
          <mxGeometry x="10" y="70" width="110" height="38" as="geometry" />
        </mxCell>
        <mxCell id="F_Y_0ZEHJML5aiYPCJpK-29" value="" style="group" parent="F_Y_0ZEHJML5aiYPCJpK-90" vertex="1" connectable="0">
          <mxGeometry x="60" y="10" width="50" height="20" as="geometry" />
        </mxCell>
        <mxCell id="F_Y_0ZEHJML5aiYPCJpK-30" value="" style="html=1;verticalLabelPosition=bottom;align=center;labelBackgroundColor=#ffffff;verticalAlign=top;strokeWidth=2;strokeColor=#B09500;shadow=0;dashed=0;shape=mxgraph.ios7.icons.data;fillColor=#e3c800;fontColor=#000000;" parent="F_Y_0ZEHJML5aiYPCJpK-29" vertex="1">
          <mxGeometry x="30" width="20" height="20" as="geometry" />
        </mxCell>
        <mxCell id="F_Y_0ZEHJML5aiYPCJpK-31" value="" style="html=1;verticalLabelPosition=bottom;align=center;labelBackgroundColor=#ffffff;verticalAlign=top;strokeWidth=2;strokeColor=#B09500;shadow=0;dashed=0;shape=mxgraph.ios7.icons.data;fillColor=#e3c800;fontColor=#000000;" parent="F_Y_0ZEHJML5aiYPCJpK-29" vertex="1">
          <mxGeometry width="20" height="20" as="geometry" />
        </mxCell>
        <mxCell id="F_Y_0ZEHJML5aiYPCJpK-118" value="" style="endArrow=classic;startArrow=classic;html=1;rounded=0;exitX=1;exitY=0.75;exitDx=0;exitDy=0;" parent="F_Y_0ZEHJML5aiYPCJpK-94" source="F_Y_0ZEHJML5aiYPCJpK-7" edge="1">
          <mxGeometry width="50" height="50" relative="1" as="geometry">
            <mxPoint x="-109" y="-30" as="sourcePoint" />
            <mxPoint x="1" y="30" as="targetPoint" />
          </mxGeometry>
        </mxCell>
        <mxCell id="F_Y_0ZEHJML5aiYPCJpK-95" value="Private Datasets" style="strokeWidth=1;shadow=0;dashed=0;align=center;html=1;shape=mxgraph.mockup.text.textBox;fontColor=#000000;align=left;fontSize=12;spacingLeft=4;spacingTop=-3;whiteSpace=wrap;strokeColor=#666666;mainText=;fontFamily=Times New Roman;" parent="1" vertex="1">
          <mxGeometry x="410" y="10" width="100" height="20" as="geometry" />
        </mxCell>
        <mxCell id="F_Y_0ZEHJML5aiYPCJpK-96" value="Private Datasets" style="strokeWidth=1;shadow=0;dashed=0;align=center;html=1;shape=mxgraph.mockup.text.textBox;fontColor=#000000;align=left;fontSize=12;spacingLeft=4;spacingTop=-3;whiteSpace=wrap;strokeColor=#666666;mainText=;fontFamily=Times New Roman;" parent="1" vertex="1">
          <mxGeometry x="-60" y="340" width="100" height="20" as="geometry" />
        </mxCell>
        <mxCell id="F_Y_0ZEHJML5aiYPCJpK-98" value="Private Datasets" style="strokeWidth=1;shadow=0;dashed=0;align=center;html=1;shape=mxgraph.mockup.text.textBox;fontColor=#000000;align=left;fontSize=12;spacingLeft=4;spacingTop=-3;whiteSpace=wrap;strokeColor=#666666;mainText=;fontFamily=Times New Roman;" parent="1" vertex="1">
          <mxGeometry x="410" y="330" width="100" height="20" as="geometry" />
        </mxCell>
        <mxCell id="F_Y_0ZEHJML5aiYPCJpK-11" value="" style="sketch=0;outlineConnect=0;fontColor=#ffffff;fillColor=#1ba1e2;strokeColor=#006EAF;dashed=0;verticalLabelPosition=bottom;verticalAlign=top;align=center;html=1;fontSize=12;fontStyle=0;aspect=fixed;pointerEvents=1;shape=mxgraph.aws4.sagemaker_model;" parent="1" vertex="1">
          <mxGeometry x="340" y="10" width="40" height="40" as="geometry" />
        </mxCell>
        <mxCell id="F_Y_0ZEHJML5aiYPCJpK-33" style="edgeStyle=orthogonalEdgeStyle;rounded=0;orthogonalLoop=1;jettySize=auto;html=1;" parent="1" source="F_Y_0ZEHJML5aiYPCJpK-21" target="F_Y_0ZEHJML5aiYPCJpK-11" edge="1">
          <mxGeometry relative="1" as="geometry" />
        </mxCell>
        <mxCell id="F_Y_0ZEHJML5aiYPCJpK-12" value="" style="sketch=0;outlineConnect=0;fontColor=#000000;fillColor=#e3c800;strokeColor=#B09500;dashed=0;verticalLabelPosition=bottom;verticalAlign=top;align=center;html=1;fontSize=12;fontStyle=0;aspect=fixed;pointerEvents=1;shape=mxgraph.aws4.sagemaker_model;" parent="1" vertex="1">
          <mxGeometry x="321" y="282" width="38" height="38" as="geometry" />
        </mxCell>
        <mxCell id="F_Y_0ZEHJML5aiYPCJpK-32" value="" style="edgeStyle=orthogonalEdgeStyle;rounded=0;orthogonalLoop=1;jettySize=auto;html=1;" parent="1" source="F_Y_0ZEHJML5aiYPCJpK-31" target="F_Y_0ZEHJML5aiYPCJpK-12" edge="1">
          <mxGeometry relative="1" as="geometry" />
        </mxCell>
        <mxCell id="F_Y_0ZEHJML5aiYPCJpK-111" value="cluster model" style="text;html=1;align=center;verticalAlign=middle;resizable=0;points=[];autosize=1;strokeColor=none;fillColor=none;fontFamily=Times New Roman;" parent="1" vertex="1">
          <mxGeometry x="305" y="48" width="90" height="30" as="geometry" />
        </mxCell>
        <mxCell id="F_Y_0ZEHJML5aiYPCJpK-112" value="cluster model" style="text;html=1;align=center;verticalAlign=middle;resizable=0;points=[];autosize=1;strokeColor=none;fillColor=none;fontFamily=Times New Roman;" parent="1" vertex="1">
          <mxGeometry x="295" y="325" width="90" height="30" as="geometry" />
        </mxCell>
        <mxCell id="F_Y_0ZEHJML5aiYPCJpK-113" value="cluster model" style="text;html=1;align=center;verticalAlign=middle;resizable=0;points=[];autosize=1;strokeColor=none;fillColor=none;fontFamily=Times New Roman;" parent="1" vertex="1">
          <mxGeometry x="50" y="48" width="90" height="30" as="geometry" />
        </mxCell>
        <mxCell id="F_Y_0ZEHJML5aiYPCJpK-115" value="" style="endArrow=classic;startArrow=classic;html=1;rounded=0;exitX=1;exitY=0.5;exitDx=0;exitDy=0;entryX=0;entryY=0.25;entryDx=0;entryDy=0;" parent="1" source="F_Y_0ZEHJML5aiYPCJpK-71" target="F_Y_0ZEHJML5aiYPCJpK-7" edge="1">
          <mxGeometry width="50" height="50" relative="1" as="geometry">
            <mxPoint x="140" y="210" as="sourcePoint" />
            <mxPoint x="190" y="160" as="targetPoint" />
          </mxGeometry>
        </mxCell>
        <mxCell id="F_Y_0ZEHJML5aiYPCJpK-117" value="" style="endArrow=classic;startArrow=classic;html=1;rounded=0;exitX=1;exitY=0.25;exitDx=0;exitDy=0;" parent="1" source="F_Y_0ZEHJML5aiYPCJpK-7" edge="1">
          <mxGeometry width="50" height="50" relative="1" as="geometry">
            <mxPoint x="240" y="60" as="sourcePoint" />
            <mxPoint x="380" y="110" as="targetPoint" />
          </mxGeometry>
        </mxCell>
        <mxCell id="F_Y_0ZEHJML5aiYPCJpK-119" value="" style="endArrow=classic;startArrow=classic;html=1;rounded=0;exitX=1;exitY=0.5;exitDx=0;exitDy=0;entryX=0;entryY=0.75;entryDx=0;entryDy=0;" parent="1" source="F_Y_0ZEHJML5aiYPCJpK-61" target="F_Y_0ZEHJML5aiYPCJpK-7" edge="1">
          <mxGeometry width="50" height="50" relative="1" as="geometry">
            <mxPoint x="80" y="140" as="sourcePoint" />
            <mxPoint x="220" y="190" as="targetPoint" />
          </mxGeometry>
        </mxCell>
        <mxCell id="F_Y_0ZEHJML5aiYPCJpK-120" value="" style="group" parent="1" vertex="1" connectable="0">
          <mxGeometry x="-60" y="10" width="160" height="130" as="geometry" />
        </mxCell>
        <mxCell id="F_Y_0ZEHJML5aiYPCJpK-92" value="" style="group" parent="F_Y_0ZEHJML5aiYPCJpK-120" vertex="1" connectable="0">
          <mxGeometry x="20" y="20" width="108" height="110" as="geometry" />
        </mxCell>
        <mxCell id="F_Y_0ZEHJML5aiYPCJpK-70" value="" style="group;fillColor=#6a00ff;fontColor=#ffffff;strokeColor=#3700CC;" parent="F_Y_0ZEHJML5aiYPCJpK-92" vertex="1" connectable="0">
          <mxGeometry y="50" width="90" height="60" as="geometry" />
        </mxCell>
        <mxCell id="F_Y_0ZEHJML5aiYPCJpK-71" value="" style="swimlane;startSize=0;swimlaneLine=0;rounded=1;fillColor=#6a00ff;fontColor=#ffffff;strokeColor=#3700CC;" parent="F_Y_0ZEHJML5aiYPCJpK-70" vertex="1">
          <mxGeometry width="90" height="60" as="geometry">
            <mxRectangle x="-50" y="90" width="50" height="40" as="alternateBounds" />
          </mxGeometry>
        </mxCell>
        <mxCell id="F_Y_0ZEHJML5aiYPCJpK-72" value="" style="group" parent="F_Y_0ZEHJML5aiYPCJpK-70" vertex="1" connectable="0">
          <mxGeometry x="20" y="20" width="50" height="30" as="geometry" />
        </mxCell>
        <mxCell id="F_Y_0ZEHJML5aiYPCJpK-73" value="" style="html=1;verticalLabelPosition=bottom;align=center;labelBackgroundColor=#ffffff;verticalAlign=top;strokeWidth=2;strokeColor=#0080F0;shadow=0;dashed=0;shape=mxgraph.ios7.icons.smartphone;" parent="F_Y_0ZEHJML5aiYPCJpK-72" vertex="1">
          <mxGeometry width="18" height="30" as="geometry" />
        </mxCell>
        <mxCell id="F_Y_0ZEHJML5aiYPCJpK-74" value="" style="html=1;verticalLabelPosition=bottom;align=center;labelBackgroundColor=#ffffff;verticalAlign=top;strokeWidth=2;strokeColor=#0080F0;shadow=0;dashed=0;shape=mxgraph.ios7.icons.smartphone;" parent="F_Y_0ZEHJML5aiYPCJpK-72" vertex="1">
          <mxGeometry x="32" width="18" height="30" as="geometry" />
        </mxCell>
        <mxCell id="F_Y_0ZEHJML5aiYPCJpK-88" value="" style="group" parent="F_Y_0ZEHJML5aiYPCJpK-92" vertex="1" connectable="0">
          <mxGeometry width="108" height="38" as="geometry" />
        </mxCell>
        <mxCell id="F_Y_0ZEHJML5aiYPCJpK-28" value="" style="group" parent="F_Y_0ZEHJML5aiYPCJpK-88" vertex="1" connectable="0">
          <mxGeometry y="10" width="50" height="20" as="geometry" />
        </mxCell>
        <mxCell id="F_Y_0ZEHJML5aiYPCJpK-22" value="" style="html=1;verticalLabelPosition=bottom;align=center;labelBackgroundColor=#ffffff;verticalAlign=top;strokeWidth=2;strokeColor=#3700CC;shadow=0;dashed=0;shape=mxgraph.ios7.icons.data;fillColor=#6a00ff;fontColor=#ffffff;" parent="F_Y_0ZEHJML5aiYPCJpK-28" vertex="1">
          <mxGeometry x="30" width="20" height="20" as="geometry" />
        </mxCell>
        <mxCell id="F_Y_0ZEHJML5aiYPCJpK-23" value="" style="html=1;verticalLabelPosition=bottom;align=center;labelBackgroundColor=#ffffff;verticalAlign=top;strokeWidth=2;strokeColor=#3700CC;shadow=0;dashed=0;shape=mxgraph.ios7.icons.data;fillColor=#6a00ff;fontColor=#ffffff;" parent="F_Y_0ZEHJML5aiYPCJpK-28" vertex="1">
          <mxGeometry width="20" height="20" as="geometry" />
        </mxCell>
        <mxCell id="F_Y_0ZEHJML5aiYPCJpK-97" value="Private Datasets" style="strokeWidth=1;shadow=0;dashed=0;align=center;html=1;shape=mxgraph.mockup.text.textBox;fontColor=#000000;align=left;fontSize=12;spacingLeft=4;spacingTop=-3;whiteSpace=wrap;strokeColor=#666666;mainText=;fontFamily=Times New Roman;" parent="F_Y_0ZEHJML5aiYPCJpK-120" vertex="1">
          <mxGeometry width="100" height="20" as="geometry" />
        </mxCell>
        <mxCell id="F_Y_0ZEHJML5aiYPCJpK-13" value="" style="sketch=0;outlineConnect=0;fontColor=#ffffff;fillColor=#6a00ff;strokeColor=#3700CC;dashed=0;verticalLabelPosition=bottom;verticalAlign=top;align=center;html=1;fontSize=12;fontStyle=0;aspect=fixed;pointerEvents=1;shape=mxgraph.aws4.sagemaker_model;" parent="F_Y_0ZEHJML5aiYPCJpK-120" vertex="1">
          <mxGeometry x="122" width="38" height="38" as="geometry" />
        </mxCell>
        <mxCell id="F_Y_0ZEHJML5aiYPCJpK-103" style="edgeStyle=orthogonalEdgeStyle;rounded=0;orthogonalLoop=1;jettySize=auto;html=1;entryX=0.111;entryY=0.579;entryDx=0;entryDy=0;entryPerimeter=0;" parent="F_Y_0ZEHJML5aiYPCJpK-120" source="F_Y_0ZEHJML5aiYPCJpK-22" target="F_Y_0ZEHJML5aiYPCJpK-13" edge="1">
          <mxGeometry relative="1" as="geometry" />
        </mxCell>
        <mxCell id="F_Y_0ZEHJML5aiYPCJpK-121" value="" style="group" parent="1" vertex="1" connectable="0">
          <mxGeometry x="170" y="225" width="150" height="130" as="geometry" />
        </mxCell>
        <mxCell id="F_Y_0ZEHJML5aiYPCJpK-122" value="" style="group" parent="F_Y_0ZEHJML5aiYPCJpK-121" vertex="1" connectable="0">
          <mxGeometry x="18.75" y="20" width="121.25" height="110" as="geometry" />
        </mxCell>
        <mxCell id="F_Y_0ZEHJML5aiYPCJpK-123" value="" style="group;fillColor=#a20025;fontColor=#ffffff;strokeColor=#6F0000;" parent="F_Y_0ZEHJML5aiYPCJpK-122" vertex="1" connectable="0">
          <mxGeometry y="50" width="84.375" height="60" as="geometry" />
        </mxCell>
        <mxCell id="F_Y_0ZEHJML5aiYPCJpK-124" value="" style="swimlane;startSize=0;swimlaneLine=0;rounded=1;fillColor=#a20025;fontColor=#ffffff;strokeColor=#6F0000;" parent="F_Y_0ZEHJML5aiYPCJpK-123" vertex="1">
          <mxGeometry width="84.375" height="60" as="geometry">
            <mxRectangle x="-50" y="90" width="50" height="40" as="alternateBounds" />
          </mxGeometry>
        </mxCell>
        <mxCell id="F_Y_0ZEHJML5aiYPCJpK-127" value="" style="html=1;verticalLabelPosition=bottom;align=center;labelBackgroundColor=#ffffff;verticalAlign=top;strokeWidth=2;strokeColor=#0080F0;shadow=0;dashed=0;shape=mxgraph.ios7.icons.smartphone;" parent="F_Y_0ZEHJML5aiYPCJpK-124" vertex="1">
          <mxGeometry x="58.13" y="22" width="16.875" height="30" as="geometry" />
        </mxCell>
        <mxCell id="F_Y_0ZEHJML5aiYPCJpK-138" value="" style="sketch=0;aspect=fixed;pointerEvents=1;shadow=0;dashed=0;html=1;strokeColor=none;labelPosition=center;verticalLabelPosition=bottom;verticalAlign=top;align=center;fillColor=#00188D;shape=mxgraph.azure.laptop" parent="F_Y_0ZEHJML5aiYPCJpK-124" vertex="1">
          <mxGeometry x="17.25" y="22" width="32.75" height="19.65" as="geometry" />
        </mxCell>
        <mxCell id="F_Y_0ZEHJML5aiYPCJpK-144" value="Melicious&amp;nbsp; Parameters" style="text;html=1;align=center;verticalAlign=middle;whiteSpace=wrap;rounded=0;fontFamily=Times New Roman;textDirection=vertical-rl;" parent="F_Y_0ZEHJML5aiYPCJpK-122" vertex="1">
          <mxGeometry x="-18.750000000000004" width="60" height="30" as="geometry" />
        </mxCell>
        <mxCell id="WWuLpvCloQFIVkRyOp4i-11" value="Cluster B" style="text;html=1;align=center;verticalAlign=middle;resizable=0;points=[];autosize=1;strokeColor=none;fillColor=none;fontFamily=Times New Roman;" vertex="1" parent="F_Y_0ZEHJML5aiYPCJpK-122">
          <mxGeometry x="51.25" y="20" width="70" height="30" as="geometry" />
        </mxCell>
        <mxCell id="F_Y_0ZEHJML5aiYPCJpK-129" value="" style="group" parent="1" vertex="1" connectable="0">
          <mxGeometry x="173.75" y="400" width="46.875" height="20" as="geometry" />
        </mxCell>
        <mxCell id="F_Y_0ZEHJML5aiYPCJpK-130" value="" style="html=1;verticalLabelPosition=bottom;align=center;labelBackgroundColor=#ffffff;verticalAlign=top;strokeWidth=2;strokeColor=#A50040;shadow=0;dashed=0;shape=mxgraph.ios7.icons.data;fillColor=#d80073;fontColor=#ffffff;" parent="F_Y_0ZEHJML5aiYPCJpK-129" vertex="1">
          <mxGeometry x="28.125" y="-1" width="18.75" height="20" as="geometry" />
        </mxCell>
        <mxCell id="F_Y_0ZEHJML5aiYPCJpK-131" value="" style="html=1;verticalLabelPosition=bottom;align=center;labelBackgroundColor=#ffffff;verticalAlign=top;strokeWidth=2;strokeColor=#A50040;shadow=0;dashed=0;shape=mxgraph.ios7.icons.data;fillColor=#d80073;fontColor=#ffffff;" parent="F_Y_0ZEHJML5aiYPCJpK-129" vertex="1">
          <mxGeometry width="18.75" height="20" as="geometry" />
        </mxCell>
        <mxCell id="F_Y_0ZEHJML5aiYPCJpK-132" value="Private Datasets" style="strokeWidth=1;shadow=0;dashed=0;align=center;html=1;shape=mxgraph.mockup.text.textBox;fontColor=#000000;align=left;fontSize=12;spacingLeft=4;spacingTop=-3;whiteSpace=wrap;strokeColor=#666666;mainText=;fontFamily=Times New Roman;" parent="1" vertex="1">
          <mxGeometry x="155" y="370" width="93.75" height="20" as="geometry" />
        </mxCell>
        <mxCell id="F_Y_0ZEHJML5aiYPCJpK-134" style="edgeStyle=orthogonalEdgeStyle;rounded=0;orthogonalLoop=1;jettySize=auto;html=1;entryX=0.111;entryY=0.579;entryDx=0;entryDy=0;entryPerimeter=0;" parent="1" source="F_Y_0ZEHJML5aiYPCJpK-130" target="F_Y_0ZEHJML5aiYPCJpK-133" edge="1">
          <mxGeometry relative="1" as="geometry" />
        </mxCell>
        <mxCell id="F_Y_0ZEHJML5aiYPCJpK-133" value="" style="sketch=0;outlineConnect=0;fontColor=#ffffff;fillColor=#a20025;strokeColor=#6F0000;dashed=0;verticalLabelPosition=bottom;verticalAlign=top;align=center;html=1;fontSize=12;fontStyle=0;aspect=fixed;pointerEvents=1;shape=mxgraph.aws4.sagemaker_model;" parent="1" vertex="1">
          <mxGeometry x="285.375" y="370" width="35.625" height="35.625" as="geometry" />
        </mxCell>
        <mxCell id="F_Y_0ZEHJML5aiYPCJpK-141" value="" style="shape=flexArrow;endArrow=classic;startArrow=classic;html=1;rounded=0;fillColor=#a20025;strokeColor=#6F0000;exitX=0.5;exitY=0;exitDx=0;exitDy=0;" parent="1" source="F_Y_0ZEHJML5aiYPCJpK-124" target="F_Y_0ZEHJML5aiYPCJpK-7" edge="1">
          <mxGeometry width="100" height="100" relative="1" as="geometry">
            <mxPoint x="130" y="310" as="sourcePoint" />
            <mxPoint x="220" y="220" as="targetPoint" />
          </mxGeometry>
        </mxCell>
        <mxCell id="F_Y_0ZEHJML5aiYPCJpK-142" value="cluster model" style="text;html=1;align=center;verticalAlign=middle;resizable=0;points=[];autosize=1;strokeColor=none;fillColor=none;fontFamily=Times New Roman;" parent="1" vertex="1">
          <mxGeometry x="258.19" y="405.63" width="90" height="30" as="geometry" />
        </mxCell>
        <mxCell id="F_Y_0ZEHJML5aiYPCJpK-143" value="&lt;font color=&quot;#990000&quot; style=&quot;font-size: 13px;&quot; face=&quot;Times New Roman&quot;&gt;Unkown Attacker&lt;/font&gt;" style="text;html=1;align=center;verticalAlign=middle;whiteSpace=wrap;rounded=0;" parent="1" vertex="1">
          <mxGeometry x="273.19" y="435.63" width="60" height="30" as="geometry" />
        </mxCell>
        <mxCell id="WWuLpvCloQFIVkRyOp4i-1" value="Text" style="text;html=1;align=center;verticalAlign=middle;whiteSpace=wrap;rounded=0;" vertex="1" parent="1">
          <mxGeometry x="350" y="190" width="60" height="30" as="geometry" />
        </mxCell>
        <mxCell id="WWuLpvCloQFIVkRyOp4i-2" value="Text" style="text;html=1;align=center;verticalAlign=middle;whiteSpace=wrap;rounded=0;" vertex="1" parent="1">
          <mxGeometry x="350" y="190" width="60" height="30" as="geometry" />
        </mxCell>
        <mxCell id="WWuLpvCloQFIVkRyOp4i-3" value="Text" style="text;html=1;align=center;verticalAlign=middle;whiteSpace=wrap;rounded=0;" vertex="1" parent="1">
          <mxGeometry x="350" y="190" width="60" height="30" as="geometry" />
        </mxCell>
        <mxCell id="WWuLpvCloQFIVkRyOp4i-9" value="Cluster A" style="text;html=1;align=center;verticalAlign=middle;resizable=0;points=[];autosize=1;strokeColor=none;fillColor=none;fontFamily=Times New Roman;" vertex="1" parent="1">
          <mxGeometry x="-30" y="140" width="70" height="30" as="geometry" />
        </mxCell>
        <mxCell id="WWuLpvCloQFIVkRyOp4i-10" value="Cluster B" style="text;html=1;align=center;verticalAlign=middle;resizable=0;points=[];autosize=1;strokeColor=none;fillColor=none;fontFamily=Times New Roman;" vertex="1" parent="1">
          <mxGeometry x="-30" y="195" width="70" height="30" as="geometry" />
        </mxCell>
      </root>
    </mxGraphModel>
  </diagram>
</mxfile>
